
<svg width="39px" height="38px" viewBox="88 0 39 38" version="1.1" xmlns="http://www.w3.org/2000/svg" xmlns:xlink="http://www.w3.org/1999/xlink">
    <!-- Generator: Sketch 42 (36781) - http://www.bohemiancoding.com/sketch -->
    <desc>Created with Sketch.</desc>
    <defs></defs>
    <g id="Phone_000000" stroke="none" stroke-width="1" fill="none" fill-rule="evenodd" transform="translate(88.000000, 0.000000)">
        <g id="surface1" fill-rule="nonzero" fill="#AFA37D">
            <path d="M8.08899177,0 C7.34512245,0 6.61235496,0.266460905 6.00171468,0.754972565 L5.91289438,0.799382716 L5.86848422,0.843792867 L1.42746914,5.41803841 L1.47187929,5.46244856 C0.100715523,6.72813786 -0.321180911,8.62112019 0.272805213,10.2587449 C0.278356126,10.2698481 0.267254299,10.2920532 0.272805213,10.303155 C1.4774302,13.7504926 4.55838477,20.4064643 10.5759602,26.4240398 C16.6157407,32.4638203 23.3605328,35.4226462 26.696845,36.7271948 L26.7412551,36.7271948 C28.4677001,37.3045267 30.3384774,36.8937336 31.6707819,35.7501715 L36.1562071,31.2647462 C37.3330761,30.0878772 37.3330761,28.0450103 36.1562071,26.8681413 L30.3828875,21.0948217 L30.3384774,21.0060014 C29.1616084,19.8291324 27.0743313,19.8291324 25.8974623,21.0060014 L23.0552126,23.848251 C22.0282282,23.3541885 19.580119,22.0884992 17.2374829,19.8513374 C14.9115008,17.6308299 13.72353,15.0772462 13.2849794,14.0780178 L16.1272291,11.2357682 C17.3207522,10.042245 17.3429573,8.05489147 16.0828189,6.88357339 L16.1272291,6.83916324 L15.9939986,6.70593278 L10.3094993,0.843792867 L10.2650892,0.799382716 L10.1762689,0.754972565 C9.56563,0.266460905 8.83286251,0 8.08899177,0 Z M8.08899177,2.84224966 C8.19446623,2.84224966 8.2999407,2.89221072 8.39986283,2.97548011 L14.0843621,8.79320988 L14.2175926,8.92644033 C14.2064908,8.9153385 14.300862,9.0652217 14.1287723,9.23731139 L10.5759602,12.7901235 L9.90980796,13.4118656 L10.220679,14.3000686 C10.220679,14.3000686 11.8527528,18.6689175 15.2834362,21.9386145 L15.5943073,22.2050754 C18.8973126,25.2194148 22.7887517,26.8681413 22.7887517,26.8681413 L23.6769547,27.2678326 L27.8959191,23.0488683 C28.1401749,22.8046125 28.0957647,22.8046125 28.3400206,23.0488683 L34.1577503,28.8665981 C34.4020062,29.1108539 34.4020062,29.0220336 34.1577503,29.2662894 L29.8055556,33.6184842 C29.1505065,34.179162 28.4565969,34.2957397 27.6294582,34.0181756 C24.4097222,32.7524863 18.1534419,30.0046078 12.574417,24.425583 C6.95098201,18.802148 4.01436114,12.4237404 2.93741427,9.32613169 C2.72091443,8.74879973 2.87634995,7.89390503 3.38151578,7.46090535 L3.47033608,7.37208505 L7.77812071,2.97548011 C7.87804426,2.89221072 7.98351731,2.84224966 8.08899177,2.84224966 Z" id="Shape"></path>
        </g>
    </g>
</svg>