
<svg width="32px" height="31px" viewBox="1256 0 32 31" version="1.1" xmlns="http://www.w3.org/2000/svg" xmlns:xlink="http://www.w3.org/1999/xlink">
    <desc>Created with Sketch.</desc>
    <defs></defs>
    <g id="Weixing_000000" stroke="none" stroke-width="1" fill="none" fill-rule="evenodd" transform="translate(1256.000000, 0.000000)">
        <g id="surface1" fill-rule="nonzero" fill="#AFA37D">
            <path d="M13.1021638,0 C5.99833437,0 0,4.86213175 0,11.1368392 C0,13.2557054 0.777940976,15.2005579 1.96532457,16.8690359 L1.47399343,20.6768523 L1.18738359,22.9697309 L3.27554095,22.0689572 L6.5510819,20.7177965 C8.18885238,21.5264463 10.0313442,22.0382496 11.9966687,22.1917899 C12.9537412,26.0610227 17.0021054,28.8247604 21.6185703,28.8247604 C23.5224785,28.8247604 25.2626096,28.2873673 26.7775473,27.4735997 L28.3334292,28.3743735 L30.5853636,29.6027013 L30.2578095,27.0641571 L29.9711997,24.6893899 C30.8412659,23.4405899 31.4451931,22.0126585 31.4451931,20.4311867 C31.4451931,17.0788749 29.2086131,14.2690753 26.0405506,12.8974425 C26.1531479,12.3242228 26.2043276,11.7510032 26.2043276,11.1368392 C26.2043276,4.86213175 20.2059932,0 13.1021638,0 Z M13.1021638,2.62043276 C19.0237274,2.62043276 23.5838948,6.56131862 23.5838948,11.1368392 C23.5838948,11.4848655 23.558305,11.827774 23.5020063,12.1604458 C22.8827247,12.0529674 22.2685608,11.9966687 21.6185703,11.9966687 C16.6387248,11.9966687 12.3293405,15.22103 11.8328917,19.5713572 C10.1029973,19.3973447 8.51640647,18.9008946 7.16524583,18.138308 L6.59202616,17.8516982 L6.0188065,18.0973638 L4.34009176,18.7934162 L4.62670159,16.7871474 L4.66764585,16.2139277 L4.34009176,15.8044851 C3.23971439,14.443089 2.62043276,12.8462628 2.62043276,11.1368392 C2.62043276,6.56131862 7.18060026,2.62043276 13.1021638,2.62043276 Z M8.598295,5.44558683 C7.57980615,5.44558683 6.75580321,6.26958977 6.75580321,7.28807862 C6.75580321,8.30656746 7.57980615,9.17151466 8.598295,9.17151466 C9.61678384,9.17151466 10.4407868,8.30656746 10.4407868,7.28807862 C10.4407868,6.26958977 9.61678384,5.44558683 8.598295,5.44558683 Z M17.360367,5.44558683 C16.3418782,5.44558683 15.476931,6.26958977 15.476931,7.28807862 C15.476931,8.30656746 16.3418782,9.17151466 17.360367,9.17151466 C18.3788559,9.17151466 19.2028588,8.30656746 19.2028588,7.28807862 C19.2028588,6.26958977 18.3788559,5.44558683 17.360367,5.44558683 Z M21.6185703,14.6171015 C25.7334686,14.6171015 28.8247604,17.360367 28.8247604,20.4311867 C28.8247604,21.5929804 28.4050823,22.6472945 27.6373768,23.5838948 L27.2688784,24.0342817 L27.3507669,24.5665571 L27.3917112,24.8122227 L26.7775473,24.4846686 L26.1224391,24.9350555 C24.8992289,25.7283509 23.3382293,26.2043276 21.6185703,26.2043276 C17.503672,26.2043276 14.4123802,23.5020063 14.4123802,20.4311867 C14.4123802,17.360367 17.503672,14.6171015 21.6185703,14.6171015 Z M18.3430293,16.2958162 C17.5702061,16.2958162 16.9099802,16.9150979 16.9099802,17.6879211 C16.9099802,18.4607444 17.5702061,19.080026 18.3430293,19.080026 C19.1107349,19.080026 19.7351342,18.4607444 19.7351342,17.6879211 C19.7351342,16.9150979 19.1158526,16.2958162 18.3430293,16.2958162 Z M24.9350555,16.2958162 C24.1673512,16.2958162 23.5429506,16.9150979 23.5429506,17.6879211 C23.5429506,18.4607444 24.1622322,19.080026 24.9350555,19.080026 C25.7078788,19.080026 26.3271604,18.4607444 26.3271604,17.6879211 C26.3271604,16.9150979 25.7078788,16.2958162 24.9350555,16.2958162 Z" id="Shape"></path>
        </g>
    </g>
</svg>